<svg xmlns="http://www.w3.org/2000/svg" width="600" height="380" viewBox="0 0 600 380">
  <defs>
    <marker id="arrow" markerWidth="10" markerHeight="7" refX="9" refY="3.5" orient="auto" markerUnits="strokeWidth">
      <path d="M 0 0 L 10 3.5 L 0 7 z" fill="#222222"/>
    </marker>
    <style>
      .state { fill: #ffffff; stroke: #222222; stroke-width: 2.2; }
      .edge { fill: none; stroke: #222222; stroke-width: 2.1; marker-end: url(#arrow); }
      .label {
        fill: #222222;
        font-family: "Times New Roman", "Noto Serif", serif;
        font-size: 22px;
      }
      .node {
        fill: #222222;
        font-family: "Times New Roman", "Noto Serif", serif;
        font-size: 24px;
      }
    </style>
  </defs>
  <line x1="70" y1="100" x2="146" y2="100" class="edge"/>
  <line x1="214" y1="84" x2="386" y2="84" class="edge"/>
  <text x="300" y="66" text-anchor="middle" class="label">1</text>
  <line x1="386" y1="116" x2="214" y2="116" class="edge"/>
  <text x="300" y="142" text-anchor="middle" class="label">1</text>
  <line x1="162" y1="134" x2="162" y2="246" class="edge"/>
  <text x="136" y="196" text-anchor="middle" class="label">0</text>
  <line x1="198" y1="246" x2="198" y2="134" class="edge"/>
  <text x="224" y="196" text-anchor="middle" class="label">0</text>
  <line x1="214" y1="264" x2="386" y2="264" class="edge"/>
  <text x="300" y="246" text-anchor="middle" class="label">1</text>
  <line x1="386" y1="296" x2="214" y2="296" class="edge"/>
  <text x="300" y="324" text-anchor="middle" class="label">1</text>
  <line x1="402" y1="134" x2="402" y2="246" class="edge"/>
  <text x="376" y="196" text-anchor="middle" class="label">0</text>
  <line x1="438" y1="246" x2="438" y2="134" class="edge"/>
  <text x="464" y="196" text-anchor="middle" class="label">0</text>
  <circle cx="180" cy="100" r="34" class="state"/>
  <text x="180" y="108" text-anchor="middle" class="node">q0</text>
  <circle cx="180" cy="280" r="34" class="state"/>
  <text x="180" y="288" text-anchor="middle" class="node">q1</text>
  <circle cx="420" cy="100" r="34" class="state"/>
  <text x="420" y="108" text-anchor="middle" class="node">q2</text>
  <circle cx="420" cy="280" r="40" class="state"/>
  <circle cx="420" cy="280" r="34" class="state"/>
  <text x="420" y="288" text-anchor="middle" class="node">q3</text>
</svg>