<svg xmlns="http://www.w3.org/2000/svg" width="1180" height="760" viewBox="0 0 1180 760">
  <defs>
    <marker id="arrow" markerWidth="9" markerHeight="7" refX="8" refY="3.5" orient="auto" markerUnits="strokeWidth">
      <path d="M 0 0 L 9 3.5 L 0 7 z" fill="#000"/>
    </marker>
    <style>
      .state { fill: #fff; stroke: #000; stroke-width: 2; }
      .edge { fill: none; stroke: #000; stroke-width: 1.7; marker-end: url(#arrow); }
      .label { fill: #000; font-family: "Times New Roman", "Noto Serif CJK SC", "Noto Serif", serif; font-size: 22px; }
      .node { fill: #000; font-family: "Times New Roman", "Noto Serif CJK SC", "Noto Serif", serif; font-size: 25px; }
    </style>
  </defs>

  <!-- start -->
  <path class="edge" d="M 24 360 L 54 360"/>

  <!-- I0 -->
  <path class="edge" d="M 115 336 L 235 205"/>
  <text class="label" x="168" y="262" text-anchor="middle">R</text>

  <path class="edge" d="M 123 385 L 229 477"/>
  <text class="label" x="168" y="420" text-anchor="middle">(</text>

  <path class="edge" d="M 96 396 C 116 505 170 600 230 643"/>
  <text class="label" x="130" y="540" text-anchor="middle">a</text>

  <!-- I1 -->
  <path class="edge" d="M 294 170 L 464 118"/>
  <text class="label" x="380" y="136" text-anchor="middle">+</text>

  <path class="edge" d="M 296 193 L 466 259"/>
  <text class="label" x="380" y="218" text-anchor="middle">times</text>

  <path class="edge" d="M 291 157 C 450 30 770 25 950 88"/>
  <text class="label" x="612" y="38" text-anchor="middle">*</text>

  <!-- I2 -->
  <path class="edge" d="M 296 500 L 464 500"/>
  <text class="label" x="380" y="484" text-anchor="middle">R</text>

  <path class="edge" d="M 227 486 C 158 432 158 568 227 514"/>
  <text class="label" x="165" y="506" text-anchor="middle">(</text>

  <path class="edge" d="M 260 536 L 260 622"/>
  <text class="label" x="276" y="583">a</text>

  <!-- I4 -->
  <path class="edge" d="M 536 113 L 714 127"/>
  <text class="label" x="626" y="145" text-anchor="middle">R</text>

  <path class="edge" d="M 473 134 C 392 210 330 340 280 466"/>
  <text class="label" x="378" y="306" text-anchor="middle">(</text>

  <path class="edge" d="M 484 143 C 427 283 366 544 285 627"/>
  <text class="label" x="401" y="445" text-anchor="middle">a</text>

  <!-- I5 -->
  <path class="edge" d="M 536 270 C 595 260 655 262 714 284"/>
  <text class="label" x="626" y="260" text-anchor="middle">R</text>

  <path class="edge" d="M 468 287 C 400 340 340 420 290 470"/>
  <text class="label" x="392" y="398" text-anchor="middle">(</text>

  <path class="edge" d="M 488 304 C 436 424 370 570 288 631"/>
  <text class="label" x="420" y="492" text-anchor="middle">a</text>

  <!-- I7 -->
  <path class="edge" d="M 494 465 C 432 338 444 214 486 143"/>
  <text class="label" x="462" y="332" text-anchor="middle">+</text>

  <path class="edge" d="M 514 466 C 530 396 529 350 514 304"/>
  <text class="label" x="554" y="390" text-anchor="middle">times</text>

  <path class="edge" d="M 534 489 C 720 420 875 255 955 123"/>
  <text class="label" x="812" y="350" text-anchor="middle">*</text>

  <path class="edge" d="M 536 500 L 714 500"/>
  <text class="label" x="626" y="484" text-anchor="middle">)</text>

  <!-- I8 -->
  <path class="edge" d="M 717 118 C 650 75 580 75 529 99"/>
  <text class="label" x="626" y="76" text-anchor="middle">+</text>

  <path class="edge" d="M 724 151 C 660 198 604 244 534 264"/>
  <text class="label" x="686" y="216" text-anchor="middle">times</text>

  <path class="edge" d="M 786 126 L 944 105"/>
  <text class="label" x="866" y="102" text-anchor="middle">*</text>

  <!-- I9 -->
  <path class="edge" d="M 718 278 C 640 244 574 184 522 136"/>
  <text class="label" x="636" y="246" text-anchor="middle">+</text>

  <path class="edge" d="M 714 291 C 651 302 592 296 536 276"/>
  <text class="label" x="626" y="321" text-anchor="middle">times</text>

  <path class="edge" d="M 780 271 C 860 226 914 154 956 121"/>
  <text class="label" x="848" y="196" text-anchor="middle">*</text>

  <!-- states -->
  <circle class="state" cx="90" cy="360" r="36"/>
  <text class="node" x="90" y="369" text-anchor="middle">I0</text>

  <circle class="state" cx="260" cy="180" r="36"/>
  <text class="node" x="260" y="189" text-anchor="middle">I1</text>

  <circle class="state" cx="260" cy="500" r="36"/>
  <text class="node" x="260" y="509" text-anchor="middle">I2</text>

  <circle class="state" cx="260" cy="660" r="36"/>
  <text class="node" x="260" y="669" text-anchor="middle">I3</text>

  <circle class="state" cx="500" cy="110" r="36"/>
  <text class="node" x="500" y="119" text-anchor="middle">I4</text>

  <circle class="state" cx="500" cy="270" r="36"/>
  <text class="node" x="500" y="279" text-anchor="middle">I5</text>

  <circle class="state" cx="980" cy="100" r="36"/>
  <text class="node" x="980" y="109" text-anchor="middle">I6</text>

  <circle class="state" cx="500" cy="500" r="36"/>
  <text class="node" x="500" y="509" text-anchor="middle">I7</text>

  <circle class="state" cx="750" cy="130" r="36"/>
  <text class="node" x="750" y="139" text-anchor="middle">I8</text>

  <circle class="state" cx="750" cy="290" r="36"/>
  <text class="node" x="750" y="299" text-anchor="middle">I9</text>

  <circle class="state" cx="750" cy="500" r="36"/>
  <text class="node" x="750" y="509" text-anchor="middle">I10</text>
</svg>
