<svg xmlns="http://www.w3.org/2000/svg" width="980" height="680" viewBox="0 0 980 680">
  <defs>
    <style>
      .node { fill: #ffffff; stroke: #111111; stroke-width: 1.2; }
      .edge { stroke: #111111; stroke-width: 1.1; fill: none; }
      .text { font-family: "Times New Roman", "SimSun", serif; font-size: 17px; text-anchor: middle; dominant-baseline: middle; }
      .small { font-size: 15px; }
    </style>
  </defs>
  <text class="text" x="490" y="30">101.101 =&gt; 5 + 5 / 2^3 = 5.625</text>
  <rect class="node" x="395" y="55" width="190" height="45" rx="3"/>
  <text class="text" x="490" y="78">S.val=5.625</text>
  <line class="edge" x1="490" y1="100" x2="255" y2="160"/>
  <line class="edge" x1="490" y1="100" x2="490" y2="160"/>
  <line class="edge" x1="490" y1="100" x2="725" y2="160"/>
  <rect class="node" x="155" y="145" width="200" height="45" rx="3"/>
  <text class="text" x="255" y="168">L.val=5,len=3</text>
  <rect class="node" x="465" y="145" width="50" height="45" rx="3"/>
  <text class="text" x="490" y="168">.</text>
  <rect class="node" x="625" y="145" width="200" height="45" rx="3"/>
  <text class="text" x="725" y="168">L.val=5,len=3</text>
  <line class="edge" x1="255" y1="190" x2="165" y2="260"/>
  <line class="edge" x1="255" y1="190" x2="350" y2="260"/>
  <rect class="node" x="65" y="245" width="200" height="45" rx="3"/>
  <text class="text" x="165" y="268">L.val=2,len=2</text>
  <rect class="node" x="315" y="245" width="70" height="45" rx="3"/>
  <text class="text small" x="350" y="268">B.val=1</text>
  <line class="edge" x1="350" y1="290" x2="350" y2="335"/>
  <rect class="node" x="325" y="335" width="50" height="35" rx="3"/>
  <text class="text" x="350" y="353">1</text>
  <line class="edge" x1="165" y1="290" x2="110" y2="380"/>
  <line class="edge" x1="165" y1="290" x2="265" y2="380"/>
  <rect class="node" x="20" y="365" width="180" height="45" rx="3"/>
  <text class="text small" x="110" y="388">L.val=1,len=1</text>
  <rect class="node" x="230" y="365" width="70" height="45" rx="3"/>
  <text class="text small" x="265" y="388">B.val=0</text>
  <line class="edge" x1="265" y1="410" x2="265" y2="455"/>
  <rect class="node" x="240" y="455" width="50" height="35" rx="3"/>
  <text class="text" x="265" y="473">0</text>
  <line class="edge" x1="110" y1="410" x2="110" y2="500"/>
  <rect class="node" x="75" y="500" width="70" height="45" rx="3"/>
  <text class="text small" x="110" y="523">B.val=1</text>
  <line class="edge" x1="110" y1="545" x2="110" y2="590"/>
  <rect class="node" x="85" y="590" width="50" height="35" rx="3"/>
  <text class="text" x="110" y="608">1</text>
  <line class="edge" x1="725" y1="190" x2="635" y2="260"/>
  <line class="edge" x1="725" y1="190" x2="820" y2="260"/>
  <rect class="node" x="535" y="245" width="200" height="45" rx="3"/>
  <text class="text" x="635" y="268">L.val=2,len=2</text>
  <rect class="node" x="785" y="245" width="70" height="45" rx="3"/>
  <text class="text small" x="820" y="268">B.val=1</text>
  <line class="edge" x1="820" y1="290" x2="820" y2="335"/>
  <rect class="node" x="795" y="335" width="50" height="35" rx="3"/>
  <text class="text" x="820" y="353">1</text>
  <line class="edge" x1="635" y1="290" x2="580" y2="380"/>
  <line class="edge" x1="635" y1="290" x2="735" y2="380"/>
  <rect class="node" x="490" y="365" width="180" height="45" rx="3"/>
  <text class="text small" x="580" y="388">L.val=1,len=1</text>
  <rect class="node" x="700" y="365" width="70" height="45" rx="3"/>
  <text class="text small" x="735" y="388">B.val=0</text>
  <line class="edge" x1="735" y1="410" x2="735" y2="455"/>
  <rect class="node" x="710" y="455" width="50" height="35" rx="3"/>
  <text class="text" x="735" y="473">0</text>
  <line class="edge" x1="580" y1="410" x2="580" y2="500"/>
  <rect class="node" x="545" y="500" width="70" height="45" rx="3"/>
  <text class="text small" x="580" y="523">B.val=1</text>
  <line class="edge" x1="580" y1="545" x2="580" y2="590"/>
  <rect class="node" x="555" y="590" width="50" height="35" rx="3"/>
  <text class="text" x="580" y="608">1</text>
</svg>
