<svg xmlns="http://www.w3.org/2000/svg" width="820" height="620" viewBox="0 0 820 620">
  <defs>
    <marker id="arrow" markerWidth="10" markerHeight="10" refX="9" refY="3" orient="auto" markerUnits="strokeWidth">
      <path d="M0,0 L9,3 L0,6 Z" fill="#111111"/>
    </marker>
    <style>
      .node { fill: #ffffff; stroke: #111111; stroke-width: 1.3; }
      .edge { stroke: #111111; stroke-width: 1.2; fill: none; marker-end: url(#arrow); }
      .text { font-family: "Times New Roman", "SimSun", serif; font-size: 16px; text-anchor: middle; dominant-baseline: middle; }
      .small { font-size: 14px; }
    </style>
  </defs>
  <rect class="node" x="330" y="25" width="160" height="58" rx="4"/>
  <text class="text" x="410" y="44">B1</text>
  <text class="text small" x="410" y="66">(1)-(4)</text>
  <rect class="node" x="330" y="125" width="160" height="58" rx="4"/>
  <text class="text" x="410" y="144">B2</text>
  <text class="text small" x="410" y="166">(5)-(8)</text>
  <rect class="node" x="330" y="235" width="160" height="58" rx="4"/>
  <text class="text" x="410" y="254">B3</text>
  <text class="text small" x="410" y="276">(9)-(12)</text>
  <rect class="node" x="330" y="345" width="160" height="58" rx="4"/>
  <text class="text" x="410" y="364">B4</text>
  <text class="text small" x="410" y="386">(13)</text>
  <rect class="node" x="115" y="485" width="170" height="58" rx="4"/>
  <text class="text" x="200" y="504">B5</text>
  <text class="text small" x="200" y="526">(14)-(22)</text>
  <rect class="node" x="545" y="485" width="170" height="58" rx="4"/>
  <text class="text" x="630" y="504">B6</text>
  <text class="text small" x="630" y="526">(23)-(30)</text>
  <path class="edge" d="M410 83 L410 125"/>
  <path class="edge" d="M410 183 L410 235"/>
  <path class="edge" d="M410 293 L410 345"/>
  <path class="edge" d="M330 154 C250 154,250 120,330 137"/>
  <text class="text small" x="240" y="136">t3&lt;v</text>
  <path class="edge" d="M490 264 C570 264,570 230,490 247"/>
  <text class="text small" x="580" y="246">t5&gt;v</text>
  <path class="edge" d="M365 403 C330 440,275 470,238 485"/>
  <text class="text small" x="320" y="405">i&lt;j</text>
  <path class="edge" d="M455 403 C500 440,560 470,592 485"/>
  <text class="text small" x="545" y="405">i&gt;=j</text>
  <path class="edge" d="M165 485 C70 390,85 165,330 154"/>
  <text class="text small" x="78" y="315">goto B2</text>
  <path class="edge" d="M630 543 L630 585"/>
  <text class="text small" x="630" y="600">exit</text>
</svg>
