<svg xmlns="http://www.w3.org/2000/svg" width="900" height="380" viewBox="0 0 900 380">
  <g fill="none" stroke="#000" stroke-width="1.5" stroke-linecap="round">
    <line x1="450" y1="52" x2="250" y2="98"/>
    <line x1="450" y1="52" x2="540" y2="98"/>
    <line x1="450" y1="52" x2="705" y2="98"/>

    <line x1="250" y1="132" x2="145" y2="178"/>
    <line x1="250" y1="132" x2="250" y2="178"/>
    <line x1="250" y1="132" x2="355" y2="178"/>

    <line x1="145" y1="212" x2="145" y2="258"/>
    <line x1="250" y1="212" x2="250" y2="258"/>

    <line x1="540" y1="132" x2="450" y2="178"/>
    <line x1="540" y1="132" x2="555" y2="178"/>
    <line x1="540" y1="132" x2="660" y2="178"/>

    <line x1="450" y1="212" x2="450" y2="258"/>

    <line x1="555" y1="212" x2="505" y2="258"/>
    <line x1="555" y1="212" x2="600" y2="258"/>
    <line x1="555" y1="212" x2="695" y2="258"/>

    <line x1="505" y1="292" x2="505" y2="338"/>
    <line x1="600" y1="292" x2="600" y2="338"/>
  </g>

  <g font-family="Times New Roman, serif" font-size="28" text-anchor="middle" dominant-baseline="middle" fill="#000">
    <text x="450" y="36">S</text>

    <text x="250" y="116">S</text>
    <text x="540" y="116">S</text>
    <text x="705" y="116">+</text>

    <text x="145" y="196">S</text>
    <text x="250" y="196">S</text>
    <text x="355" y="196">+</text>

    <text x="145" y="276">a</text>
    <text x="250" y="276">a</text>

    <text x="450" y="196">S</text>
    <text x="555" y="196">S</text>
    <text x="660" y="196">+</text>

    <text x="450" y="276">a</text>

    <text x="505" y="276">S</text>
    <text x="600" y="276">S</text>
    <text x="695" y="276">*</text>

    <text x="505" y="356">a</text>
    <text x="600" y="356">a</text>
  </g>
</svg>
